<?xml version="1.0" encoding="UTF-8"?><svg id="a" xmlns="http://www.w3.org/2000/svg" viewBox="0 0 750.28 691.53"><defs><style>.b{fill:#c16353;}.c{fill:#b78977;}.d{fill:#fff;}.e{fill:#9198a7;}.f{fill:#8a9baf;}.f,.g,.h,.i{stroke-miterlimit:10;}.f,.h,.i{stroke:#8b6251;stroke-width:.2px;}.g{fill:none;stroke:#1e1d00;stroke-width:2px;}.h,.j{fill:#c69b8b;}.k{fill:#b0524e;}.l{fill:#4c5600;}.m{fill:#e2e2e2;}.n{fill:#8bafe1;}.o{fill:#33507b;}.p{fill:#81a4d6;}.q{fill:#404a55;}.r{fill:#7e8ca2;}.j{opacity:.32;}.s{fill:#0c0a09;}.s,.t{opacity:.78;}.u{fill:#a17d6e;opacity:.42;}.v{fill:#933;opacity:.46;}.w{fill:#310b07;}.t{fill:#11100f;}.x{fill:#3e221c;}.i,.y{fill:#d8a793;}.z{fill:#290500;}.aa{fill:#181714;}.ab{fill:#91a2b4;}</style></defs><g><rect class="d" x="355.18" y="675.23" width="12.94" height="11.75"/><polygon class="d" points="270.41 691.43 541.37 691.43 534.16 474.5 264.88 482.96 270.41 691.43"/><path class="d" d="m240.4,485.96l85.93,101.11,26.55,103.32,20.36-2.29,38.39-100.35,62.27-75.55,73.02-67.3s9.01,26.34,30.64,32.55l125.11,49.53s15.7,5.23,34.21,24c2.28,2.31,13.3,8.17,13.3,8.17v132.28H.18s-1.17-4.45,5.47-15c6.64-10.55,17.87-48.85,22.98-65.19,5.11-16.34,20.43-37.79,52.6-53.11s81.7-29.11,114.38-39.83,44.8-32.34,44.8-32.34"/><rect class="d" x="357.99" y="680.09" width="8" height="5.11"/><path class="d" d="m40.12,657.19l4.34,32.95h303.83s-5.79-50.82-5.79-50.82l-3.15-3.83-173.36,14.04-43.38-3.69c-3.05-.26-6.11.12-9.01,1.11l-18.27,6.27c-2.24.77-4.59,1.21-6.96,1.29l-24.93.9c-2.6-.34-5.23-.36-7.84-.05l-15.48,1.83Z"/><path class="d" d="m481.18,316.43s26.93-27.66,35.62-36.34,17.36-29.88,10.98-61.02c-6.38-31.15-48,.76-48,.76l1.41,96.6Z"/><path class="d" d="m491.78,287.49s-1.79,14.55,3.32,12c5.11-2.55,12-12,12-12,0,0,2.3-2.3-.64-5.87-2.94-3.57,4.72-5.36,4.72-5.36,0,0,7.28,1.28,9.83-15.57,2.55-16.85.89-16.85.89-16.85l-6.89-14.13s-40.34,7.24-31.79,32.52l8.55,25.28Z"/><path class="d" d="m495.15,278.2s5.57-.02,6.59-4.68c1.02-4.66,6.64-1.35,6.64-1.35,0,0,6.38,1.45,8.17-6.81,1.79-8.26,5.62-15.66,2.81-20.77-2.81-5.11-10.72-9.61-10.72-9.61l-14.81,6.54-5.11,29.36,6.43,7.3Z"/><rect class="d" x="283.61" y="211.58" width="190.3" height="33.23"/><g><path class="d" d="m319,219.37c-2.82.18-6.76.35-9.55,1.3-.43,1.14-.68,2.36-.68,3.64,0,5.9,4.78,10.68,10.68,10.68s10.68-4.78,10.68-10.68c0-1.45-.3-2.82-.82-4.07-3.43-.49-6.81-1.09-10.3-.87Z"/><path class="d" d="m319,219.37c-2.82.18-6.76.35-9.55,1.3-.43,1.14-.68,2.36-.68,3.64,0,5.9,4.78,10.68,10.68,10.68s10.68-4.78,10.68-10.68c0-1.45-.3-2.82-.82-4.07-3.43-.49-6.81-1.09-10.3-.87Z"/></g><path class="d" d="m267.09,310.47s-25.79-25.53-31.66-38.81c-5.87-13.28-11.04-28.53-4.88-73.76,6.16-45.22,35.27,61.59,35.27,61.59l1.28,50.97Z"/><path class="d" d="m265.05,297.18s-25.53-18.94-28.34-37.04,2.42-27.69,8.43-27.29,19.91,18.89,19.91,18.89v45.44Z"/><path class="d" d="m252.8,267.94s-9.19,2.04-13.28-11.93-2.81-35.84-1.28-40.22-3.83-2.07-3.83-2.07c0,0-5.11,20.41-3.57,28.83,1.53,8.43,5.67,27.32,11.26,29.36s9.2,2.22,10.7,0,3.39-3.82,0-3.97Z"/><path class="d" d="m270.41,315.14s-17.11-23.54-29.11-33.86c-12-10.31-18.73-29.3-18.38-44.02.35-14.72-3.06-25.95,11.23-29.7s52.34,41.7,52.34,41.7l-16.09,65.87Z"/><path class="d" d="m264.19,302.72s-20.26-15.13-19.06-21.44c1.19-6.31,1.19-7.51-2.72-8.7s-10.38-3.06-11.23-18.38c-.85-15.32-.17-24.01,9.02-28.52,9.19-4.5,27.91,20.18,27.91,20.18l-3.91,56.86Z"/><path class="d" d="m264.28,277.35s-6.89,2.55-9.96-2.04-3.32-6.89-8.43-6.89-9.19.97-10.47-12.28,1.79-14.02,7.15-21.42,27.83,10.47,27.83,10.47l-6.13,32.17Z"/><g><path class="d" d="m432.99,219.88c2.82.18,6.76.35,9.55,1.3.43,1.14.68,2.36.68,3.64,0,5.9-4.78,10.68-10.68,10.68s-10.68-4.78-10.68-10.68c0-1.45.3-2.82.82-4.07,3.43-.49,6.81-1.09,10.3-.87Z"/><path class="d" d="m432.99,219.88c2.82.18,6.76.35,9.55,1.3.43,1.14.68,2.36.68,3.64,0,5.9-4.78,10.68-10.68,10.68s-10.68-4.78-10.68-10.68c0-1.45.3-2.82.82-4.07,3.43-.49,6.81-1.09,10.3-.87Z"/></g><path class="d" d="m503.43,463.66c.43,0,15.75,5.11,15.75,5.11l-1.19-27.57-14.56,22.47Z"/><path class="d" d="m511.31,442.26s.16-.06.44-.18c3.34-1.31,24.48-9.58,28.71-9.58,4.6,0-9.7-24.85-9.7-24.85l-21.28-6.3-30.81.51-13.96,2.17,10.34,27.83,36.25,10.39Z"/><path class="d" d="m475.95,433.28l44.43-7.91s6.13,13.28-12.51,39.06"/><path class="d" d="m555.26,474.55c4.09-4.6-11.74-58.04-11.74-58.04-2.38-6.13-17.36-14.47-28.09-16.26-10.72-1.8-46.13-.76-46.13-.76,0,0-41.7,9.53.51,4.6,42.21-4.94,55.49,2.55,55.49,2.55,0,0,11.57,1.02,10.55,26.38-1.02,25.36,0,24.51,0,24.51,0,0,8,9.7,8.68,14.3.17,1.18.12,2.04-.05,2.67l10.64.19s.1-.1.13-.14Z"/><path class="d" d="m287.98,413.15s-4.84-.39-10.28,1.31-32.55,33.03-32.55,33.03c0,0-16.71,24.8-20.79,26.5s-10.21,8.51-10.21,8.51l66.75,42.09,1.02-1.87c4.09-7.49,0-38.29,0-38.29l24.51-20.01-18.44-51.27Z"/><ellipse class="d" cx="283.92" cy="465.49" rx="4.87" ry="5.75"/><path class="d" d="m280.88,524.6l-40.48-25.52,32.82-37.97s1.79-3.06,3.06,0,4.6,63.49,4.6,63.49Z"/><path class="d" d="m542.62,473.91c-.31,1.15-1.01,1.55-1.5,1.69-.63.17-1.24.46-1.82.77-52.48,28.13-73.74,52.74-73.74,52.74,2.38,2.04,5.45,0,5.45,0l41.87-24.51s34.93-24.98,40.2-30.32c.07-.07.01-.19-.09-.19l-10.38-.18Z"/><path class="d" d="m288.8,418.72s-21.19,9.53-23.91,18.72c0,0,12.26,37.11,18.21,37.45s15.83-49.02,15.32-49.36-9.62-6.81-9.62-6.81Z"/><path class="d" d="m470.07,322.83c-5.62,120,46.21,142.87,46.21,142.87l2.23,11.71,1.62,8.49-52.12,40.61-45.44,8.89c-56.17,12-84.51-6.64-113.11-20.68s-29.45-39.32-29.45-39.32c0,0-.67-5.89,1.87-6.09,2.61-.2,4.3-5.15,4.3-7.83l4.13-112.45,179.74-26.21Z"/><path class="d" d="m520.8,437.25s-19.8,48.35-31.4,56.3c-2.72,1.86,47.89-32.36,47.89-32.36l-1.44-27.71-1.6-.88"/><path class="d" d="m336.63,437.39c14.02,12.56,33.79,16.61,51.51,10.25,14.02-5.03,30.38-13.03,41.61-25.24,23.49-25.53,41.68-48.34,41.68-48.34l-1.65-24.17-180.09,16.6-.89,22.97s25.83,28.21,47.84,47.93Z"/><path class="d" d="m507.61,101.62l-94.09-38.81-143.83,40.17s-37.14,97.36-25.23,132.52c11.91,35.16,17.17,69.72,18.04,76.5,4.17,32.29,24.17,64,24.17,64,42.21,60.94,76.26,50.38,104.17,49.7,24.33-.59,68.32-47.74,79.21-59.84,1.65-1.83,2.88-4,3.6-6.36,3.74-12.23,14.89-49.55,14.89-49.55.05-3.74,16.34-74.97,16.34-74.97l8.85-13.85-6.13-119.52Zm-169.13,126.18c-.23.82-1.29,1.2-6.04,1.31-3.01.07-7.5.03-14.2-.08-5.07-.08-9.54-.12-14.5-2.74-1.36-.72-2.41-1.45-3.12-1.98,0,0,.93-1.9,6.88-4.05,1.8-.65,3.53-1.1,5.19-1.39,2.12-.37,6.62-1.11,12.29.08,2.95.62,7.18,1.57,10.87,5.05,1.67,1.57,2.91,2.75,2.62,3.8Zm110.28-1.71c-.63.36-1.49.82-2.55,1.28-.82.35-2.76,1.13-5.62,1.66-2.48.46-4.24.41-6.84.51-11.47.46-13.78-.04-15.76-1.53-.8-.6-1.6-1.23-1.66-2.15-.16-2.69,6.26-5.43,10.68-6.39,0,0,5.33-1.31,12.29-.08.43.08,2.58.36,5.19,1.39,2.47.97,4.12,1.67,4.53,3.15.24.85-.03,1.66-.26,2.17Z"/><path class="d" d="m269.71,199.59c-.04-.17-.02-.36.05-.52.88-1.92,7.17-14.42,21-14.73,14.98-.34,2.38,0,23.83,2.72,16.45,2.09,21.69,2.78,25.38,4.67.92.47,2.04,1.11,3.21,2.14,3.13,2.72,4.25,5.98,5.42,9.38,1.3,3.8.96,4.88.77,5.34-.68,1.65-2.43,2.93-4.15,2.98-1.43.04-2.32-.78-3.74-1.7-.59-.39-2.84-1.31-7.34-3.15-4.91-2.01-9.11-2.95-13.79-4.25-3.9-1.09-9.45-2.8-16.15-5.45-6.1-2.12-11.08-2.27-14.12-2.12-1.82.09-3.76.21-6.13,1.02-4.82,1.66-7.78,4.96-9.19,6.81,0,0-3.94,1.64-5.05-3.13Z"/><path class="d" d="m408.54,191.83c-1.9,1.74-6.45,6.34-6.47,11.91,0,2.04.59,2.85.95,3.19,2.29,2.23,7.91-.47,7.91-.47,2.8-1.28,6.89-3.1,11.91-5.11,10.92-4.37,16.38-6.56,22.81-7.49,4.8-.7,12.42-1.06,22.13,1.7,0,0,18.72,6.13,11.91-4.43-6.81-10.55-32-11.23-32-11.23-4.03.41-8.43,1.09-13.11,2.17-10.58,2.44-19.32,6.18-26.04,9.74Z"/><g><path class="d" d="m346.24,230.17s-13.28-13.28-29.62-11.57-20.43,7.83-26.38,9.7"/><path class="d" d="m346.14,230.28c-7.56-6.34-17.33-11.13-27.31-10.61-4.89.38-9.78,1.69-14.43,3.19-4.86,1.4-9.05,4.6-14.12,5.59,0,0-.09-.29-.09-.29,2.26-1.19,4.15-2.8,6.28-4.28,5.29-3.87,11.82-5.99,18.35-6.4,6.53-.83,13.32.66,19.08,3.54,4.6,2.33,8.85,5.35,12.44,9.04,0,0-.21.21-.21.21h0Z"/></g><circle class="d" cx="319.45" cy="225.61" r="2.89"/><circle class="d" cx="319.45" cy="225.61" r=".79"/><path class="d" d="m432.54,223.23c-1.59,0-2.89,1.29-2.89,2.89s1.29,2.89,2.89,2.89,2.89-1.29,2.89-2.89-1.29-2.89-2.89-2.89Z"/><path class="d" d="m432.54,225.33c-.44,0-.79.35-.79.79s.35.79.79.79.79-.35.79-.79-.35-.79-.79-.79Z"/><g><path class="d" d="m406.36,229.03c1.41-1.22,3.35-2.76,5.75-4.29.8-.51,1.66-1.01,2.56-1.51,4.32-2.35,9.79-4.37,16.17-4.68,6.43-.31,11.73,1.21,15.83,2.38,8.83,2.53,15.07,6.51,17.39,8.09,0,0,0,0,0,0"/><path class="d" d="m406.26,228.91c12.5-11.95,28.38-14.4,44.37-8.28,4.96,1.98,9.61,4.62,13.53,8.29,0,0-.21.21-.21.21-4.72-2.18-9.47-4.16-14.32-5.67-4.78-1.39-9.8-3.2-14.77-3.67-7.57-.79-15.36,1.24-21.97,5.02-2.26,1.24-4.4,2.72-6.44,4.33l-.2-.23h0Z"/></g><path class="d" d="m359.08,294.17s2.56,9.57,11.58,10.21c1.05.07,2.38.12,3.28.04,6.83-.64,9.19-1.9,12.13-10.25,0,0-5.38,4.27-10.44,5.71-1.05.3-2.93-.57-3.9-.58-1.41-.01-1.86.9-3.06.64-3.62-.79-6.47-2.7-9.59-5.76Z"/><path class="d" d="m534.16,114.55s-6.81-38.13-24.51-60.26c-17.7-22.13-11.91-11.91-34.38-29.62C427.64-12.84,345.56,3.58,345.56,3.58l-3.06.68c-3.06.68-55.15,15.32-78.98,45.28-23.83,29.96-33.36,71.15-36.77,98.72s2.04,61.62,2.04,61.62c7.83,14.64,11.23,20.3,11.23,20.3-1.7,9.06.68,17.49,1.7,22.59,1.02,5.11,11.57,9.19,11.57,9.19l-3.74-17.36s5.11-43.91,14.64-60.36c9.53-16.45-2.04-33.59-2.04-33.59,0,0-2.38-4.77,45.1-9.87,47.49-5.11,57.7-12.6,57.7-12.6,0,0,80-71.49,108.6-20.43,22.88,40.85,19.61,51.42,17.39,54.01-.78.91-1.42,1.95-1.68,3.13-3.82,16.88,6.43,42.94,6.43,42.94,0,0,5.11,30.99,5.11,39.84s-4.08,17.7-4.08,17.7c0,0,16.34-13.96,16.68-20.77.34-6.81,4.09-9.61,4.09-9.61,0,0,13.62-.61,12.6-11.27-1.02-10.66-1.36-23.04-1.36-23.04l5.45-34.04v-52.09Z"/><path class="d" d="m350.16,294.6s3.11,5.78-2.76,4.76-13.53-9.7-13.53-9.7c0,0-9.7-12.38-4.98-11.74s8.63,2.03,10.7,8.42,1.83,6.76,6.66,7.28c3.7.4,3.91.98,3.91.98Z"/><path class="d" d="m411,275.48c-.52.21-.8.77-.68,1.32.58,2.64,1.98,11.12-3.19,14.14-6.15,3.6-9.19,2.68-9.19,2.68,0,0-6.38,1.02-2.55,2.3s5.11,4.09,10.47,0,10.94-10.02,10.21-13.66-1.66-6.26-1.66-6.26c0,0-.5-1.36-2.68-.77-.29.08-.53.16-.73.24Z"/><path class="d" d="m384,298.41c-1.91-1.09,3.56.7,9.53-.23,3.74-.58,11.27-6.3,11.27-6.3l-20.8-6.58c-1.11,1.19-4.34,4.7-4.09,7.58.27,3.1,4.09,5.54,4.09,5.54Z"/><path class="d" d="m349.65,297.18s9.13.53,11.91,0,4.77-6.97,4.77-6.97c0,0-12.26-6.81-16.68-2.38-1.11,1.11-5.58,2.96-5.79,4.05-.62,3.25,5.79,5.31,5.79,5.31Z"/><path class="d" d="m335.36,279.37s1.63,6.77,9.03,0,21.96-22.47,21.96-22.47c0,0,5.49-3.32,11.49,0s22.78,15.32,22.78,15.32c0,0,13.86,10.43,6.96,17.66-6.89,7.23,7.4-7.58,7.4-7.58,0,0-11.62-17.5-28.34-26.88s-23.21-3.39-26.22-1.41-25.07,25.35-25.07,25.35Z"/><path class="d" d="m341.99,271.36c-1.72,1.15-4.89,3.67-6.39,8.02-.36,1.05-.51,1.91-.61,2.53-.49,3.06-.15,12.94,9.04,12.26,9.19-.68,16.43.03,16.43.03,0,0-.43,6.43,8.43,6.77,8.85.34,12.6,1.7,16-4.43,3.4-6.13,12.6-3.4,12.6-3.4,0,0,8.17,4.77,11.91-1.02,1.6-2.47,3.8-11.08.59-17.02-1.44-2.66-5.49-4.36-7.91-6.47-4.86-4.24-8.92-7.94-12.03-9.75-6.53-3.8-16.4-4.37-22.89-3.45-3.66.52-7.12,1.95-10.08,4.16-4.97,3.72-13.36,10.84-15.08,11.76Z"/><path class="d" d="m352.76,252.42l3.02-8.65,4.06-12.09s.68-13.28-10.29-15.23-9.95.96-9.95.96c0,0,7.34,9.09,11.18,10.24,4.48,1.34-.81,23.96-.81,23.96,0,0-2.91,6.87,0,3.43"/><path class="d" d="m393.05,225.09s-5.79,10.87-2.38,17.34,9.19,15.66,9.19,15.66c0,0,4.9,4.14,6.5.68.88-1.91-.09-2.53,0-2.75.18-.42.15.79-2.42-3.03-8.64-12.86-6.59-23.27-.34-27.65,1.45-1.02,2.6-2.32,3.82-5.23s3.08-3.18,2.65-4.25c-2.93-7.26-15.44,6.15-17.02,9.25Z"/><path class="d" d="m324.62,283.14l-19.95,22.26s-7.85,9.87-1.86,23.49c0,0-1.41-6.47.59-12.94,1.81-5.86,19.17-27.1,22.41-31.03.32-.39.39-.92.18-1.38l-.09-.21c-.23-.51-.91-.61-1.28-.2Z"/><path class="d" d="m421.86,278.2s-3.45-5.01-5.49-4.67c-2.04.34-4.02.22-2.86,2.33,1.16,2.1,12.39,17.42,12.39,17.42,0,0,9.53,10.58,12.6,12.61,3.06,2.03,8.17,13.94,7.49,14.96,0,0,2.04-9.16-1.36-14.96-3.4-5.8-12.88-18.06-12.88-18.06l-9.89-9.63Z"/><polygon class="d" points="314.46 328.21 327.43 327.65 327.1 345.02 314.46 328.21"/><polygon class="d" points="415.43 341.49 415.43 325.28 431.35 328 415.43 341.49"/><polygon class="d" points="327.27 336.34 415.43 334.83 415.43 342.75 370.31 361.21 327.07 343.94 327.27 336.34"/><path class="d" d="m415.43,325.28l-.26,13.62s-7.83,2.89-8,1.53v4.6s-9.87.34-9.7-2.38v2.38c-.35.69-.98,1.19-1.73,1.35-2.34.51-8,.41-8.65-.5h0c0,1.13-.91,2.04-2.04,2.04h-11.81s-1.63-1.02-1.8-2.89-.68,3.77-2.21,3.94c-1.1.12-7.11.07-10.41.03-1.61-.02-3.03-1.24-3.12-2.85-.02-.43.04-.82.25-1.12.85-1.19-.51,3.4-2.38,2.89-1.31-.36-4.86-.46-6.71-.67-.64-.07-1.13-.62-1.13-1.27l-.02-1.98s-.59,2.41-6.12,1.87c-.95-.09-1.72-.28-2.32-.48-.96-.32-1.6-1.21-1.64-2.22l-.06-1.68s-4.81,3.02-8.13,1.15v-14.99"/><path class="d" d="m314.46,328.21s17.49,29.06,22.09,32.47,11.4,9.87,26.04,9.19,33.7-7.15,33.7-7.15c0,0,10.21-3.4,21.45-17.36s13.62-17.36,13.62-17.36l-27.28,16.82c-6.57,4.22-14,6.94-21.74,7.94l-17.03,2.59c-12.32-.55-24.22-4.68-34.23-11.89l-16.62-15.25Z"/><path class="d" d="m214.13,482.51s-6.24,5.15,0,13.32c0,0,46.07,24.26,62.66,41.11,16.6,16.85,38.81,82.21,38.81,82.21,0,0-1.28,11.49,20.68,17.11,0,0,.77-1.49,9.96,55.17h34.72s33.45-109.3,55.4-127.68,16.09-36.53,110.55-89.24l-5.56-18.25s-104.91,64.09-138.53,137.62c-33.62,73.53-35.66,91.32-35.66,91.32h-9.19s-1.53-63.74-21.19-91.32c-19.66-27.57-36.65-72.93-101.87-101.7l-20.79-9.66Z"/><path class="d" d="m314.46,328.21s16.47-3.62,31.79-3.62,12.2,1.02,26.35,0,33.56-3.4,46.16,0l12.6,3.4s-25.19-3.6-35.06-2.14-23.69,6.22-23.69,6.22c0,0-12.4-4.68-31.46-3.19s-26.68-.68-26.68-.68Z"/><path class="d" d="m215.45,481.86c1.16-.59,2.95-1.51,4.75-2.53,3.11-1.76,5.72-4.28,7.61-7.32,2.1-3.37,7.01-10.55,18.47-25.81,20.83-27.73,20.57-15.16,20.57-15.16l-29.52,48.8c-.57.94-1.5,1.61-2.57,1.83-3.14.66-10.33,1.82-19.15.99-.42-.04-.53-.62-.15-.81Z"/><path class="d" d="m212.12,485.96l2.02,1.25,32.71,20.2s27.57,15.66,38.47,26.21c10.89,10.55,27.23,32.68,27.23,32.68l19.4,27.57-46.64-56.51s-12.26-12.26-38.47-27.57c-26.21-15.32-34.72-23.83-34.72-23.83Z"/><polygon class="d" points="355.01 683.83 342.5 673.87 342.5 671.66 342.5 669.11 357.05 669.02 368.71 679.32 368.71 682.72 356.54 683.06 355.01 683.83"/><polygon class="d" points="359.18 684.77 355.61 691.43 365.99 691.43 365.99 684.77 359.18 684.77"/><polygon class="d" points="356.97 671.41 368.71 681.43 368.71 679.32 357.05 669.02 342.5 669.11 342.5 671.66 356.97 671.41"/><path class="d" d="m423.35,571.15s28.85-56.84,111.57-99.91c0,0-67.49,38.38-111.57,99.91Z"/><path class="d" d="m394.24,633.96s15.37-1.46,32.22,4.42c0,0,8.12,6.05,58.16,5.29s141.45-8.17,141.45-8.17c0,0,5.11,28.66,60,39.74l-6.64,14.91h-304.26l19.06-56.18Z"/><path class="d" d="m365.26,300.13s2.77,17.57,6.98,17.57,8.68-17.57,8.68-17.57h-15.66Z"/></g><g><rect class="aa" x="355.18" y="675.23" width="12.94" height="11.75"/><polygon class="d" points="270.41 691.43 541.37 691.43 534.16 474.5 264.88 482.96 270.41 691.43"/><path class="f" d="m240.4,485.96l85.93,101.11,26.55,103.32,20.36-2.29,38.39-100.35,62.27-75.55,73.02-67.3s9.01,26.34,30.64,32.55l125.11,49.53s15.7,5.23,34.21,24c2.28,2.31,13.3,8.17,13.3,8.17v132.28H.18s-1.17-4.45,5.47-15c6.64-10.55,17.87-48.85,22.98-65.19,5.11-16.34,20.43-37.79,52.6-53.11s81.7-29.11,114.38-39.83,44.8-32.34,44.8-32.34"/><rect class="d" x="357.99" y="680.09" width="8" height="5.11"/><path class="n" d="m40.12,657.19l4.34,32.95h303.83s-5.79-50.82-5.79-50.82l-3.15-3.83-173.36,14.04-43.38-3.69c-3.05-.26-6.11.12-9.01,1.11l-18.27,6.27c-2.24.77-4.59,1.21-6.96,1.29l-24.93.9c-2.6-.34-5.23-.36-7.84-.05l-15.48,1.83Z"/><path class="h" d="m481.18,316.43s26.93-27.66,35.62-36.34,17.36-29.88,10.98-61.02c-6.38-31.15-48,.76-48,.76l1.41,96.6Z"/><path class="y" d="m491.78,287.49s-1.79,14.55,3.32,12c5.11-2.55,12-12,12-12,0,0,2.3-2.3-.64-5.87-2.94-3.57,4.72-5.36,4.72-5.36,0,0,7.28,1.28,9.83-15.57,2.55-16.85.89-16.85.89-16.85l-6.89-14.13s-40.34,7.24-31.79,32.52l8.55,25.28Z"/><path class="v" d="m495.15,278.2s5.57-.02,6.59-4.68c1.02-4.66,6.64-1.35,6.64-1.35,0,0,6.38,1.45,8.17-6.81,1.79-8.26,5.62-15.66,2.81-20.77-2.81-5.11-10.72-9.61-10.72-9.61l-14.81,6.54-5.11,29.36,6.43,7.3Z"/><rect class="d" x="283.61" y="211.58" width="190.3" height="33.23"/><g><path class="l" d="m319,219.37c-2.82.18-6.76.35-9.55,1.3-.43,1.14-.68,2.36-.68,3.64,0,5.9,4.78,10.68,10.68,10.68s10.68-4.78,10.68-10.68c0-1.45-.3-2.82-.82-4.07-3.43-.49-6.81-1.09-10.3-.87Z"/><path class="g" d="m319,219.37c-2.82.18-6.76.35-9.55,1.3-.43,1.14-.68,2.36-.68,3.64,0,5.9,4.78,10.68,10.68,10.68s10.68-4.78,10.68-10.68c0-1.45-.3-2.82-.82-4.07-3.43-.49-6.81-1.09-10.3-.87Z"/></g><path class="c" d="m267.09,310.47s-25.79-25.53-31.66-38.81c-5.87-13.28-11.04-28.53-4.88-73.76,6.16-45.22,35.27,61.59,35.27,61.59l1.28,50.97Z"/><path class="y" d="m265.05,297.18s-25.53-18.94-28.34-37.04,2.42-27.69,8.43-27.29,19.91,18.89,19.91,18.89v45.44Z"/><path class="b" d="m252.8,267.94s-9.19,2.04-13.28-11.93-2.81-35.84-1.28-40.22-3.83-2.07-3.83-2.07c0,0-5.11,20.41-3.57,28.83,1.53,8.43,5.67,27.32,11.26,29.36s9.2,2.22,10.7,0,3.39-3.82,0-3.97Z"/><path class="h" d="m270.41,315.14s-17.11-23.54-29.11-33.86c-12-10.31-18.73-29.3-18.38-44.02.35-14.72-3.06-25.95,11.23-29.7s52.34,41.7,52.34,41.7l-16.09,65.87Z"/><path class="y" d="m264.19,302.72s-20.26-15.13-19.06-21.44c1.19-6.31,1.19-7.51-2.72-8.7s-10.38-3.06-11.23-18.38c-.85-15.32-.17-24.01,9.02-28.52,9.19-4.5,27.91,20.18,27.91,20.18l-3.91,56.86Z"/><path class="v" d="m264.28,277.35s-6.89,2.55-9.96-2.04-3.32-6.89-8.43-6.89-9.19.97-10.47-12.28,1.79-14.02,7.15-21.42,27.83,10.47,27.83,10.47l-6.13,32.17Z"/><g><path class="l" d="m432.99,219.88c2.82.18,6.76.35,9.55,1.3.43,1.14.68,2.36.68,3.64,0,5.9-4.78,10.68-10.68,10.68s-10.68-4.78-10.68-10.68c0-1.45.3-2.82.82-4.07,3.43-.49,6.81-1.09,10.3-.87Z"/><path class="g" d="m432.99,219.88c2.82.18,6.76.35,9.55,1.3.43,1.14.68,2.36.68,3.64,0,5.9-4.78,10.68-10.68,10.68s-10.68-4.78-10.68-10.68c0-1.45.3-2.82.82-4.07,3.43-.49,6.81-1.09,10.3-.87Z"/></g><path class="p" d="m503.43,463.66c.43,0,15.75,5.11,15.75,5.11l-1.19-27.57-14.56,22.47Z"/><path class="q" d="m511.31,442.26s.16-.06.44-.18c3.34-1.31,24.48-9.58,28.71-9.58,4.6,0-9.7-24.85-9.7-24.85l-21.28-6.3-30.81.51-13.96,2.17,10.34,27.83,36.25,10.39Z"/><path class="o" d="m475.95,433.28l44.43-7.91s6.13,13.28-12.51,39.06"/><path class="p" d="m555.26,474.55c4.09-4.6-11.74-58.04-11.74-58.04-2.38-6.13-17.36-14.47-28.09-16.26-10.72-1.8-46.13-.76-46.13-.76,0,0-41.7,9.53.51,4.6,42.21-4.94,55.49,2.55,55.49,2.55,0,0,11.57,1.02,10.55,26.38-1.02,25.36,0,24.51,0,24.51,0,0,8,9.7,8.68,14.3.17,1.18.12,2.04-.05,2.67l10.64.19s.1-.1.13-.14Z"/><path class="r" d="m287.98,413.15s-4.84-.39-10.28,1.31-32.55,33.03-32.55,33.03c0,0-16.71,24.8-20.79,26.5s-10.21,8.51-10.21,8.51l66.75,42.09,1.02-1.87c4.09-7.49,0-38.29,0-38.29l24.51-20.01-18.44-51.27Z"/><ellipse class="s" cx="283.92" cy="465.49" rx="4.87" ry="5.75"/><path class="p" d="m280.88,524.6l-40.48-25.52,32.82-37.97s1.79-3.06,3.06,0,4.6,63.49,4.6,63.49Z"/><path class="r" d="m542.62,473.91c-.31,1.15-1.01,1.55-1.5,1.69-.63.17-1.24.46-1.82.77-52.48,28.13-73.74,52.74-73.74,52.74,2.38,2.04,5.45,0,5.45,0l41.87-24.51s34.93-24.98,40.2-30.32c.07-.07.01-.19-.09-.19l-10.38-.18Z"/><path class="t" d="m288.8,418.72s-21.19,9.53-23.91,18.72c0,0,12.26,37.11,18.21,37.45s15.83-49.02,15.32-49.36-9.62-6.81-9.62-6.81Z"/><path class="i" d="m470.07,322.83c-5.62,120,46.21,142.87,46.21,142.87l2.23,11.71,1.62,8.49-52.12,40.61-45.44,8.89c-56.17,12-84.51-6.64-113.11-20.68s-29.45-39.32-29.45-39.32c0,0-.67-5.89,1.87-6.09,2.61-.2,4.3-5.15,4.3-7.83l4.13-112.45,179.74-26.21Z"/><path class="r" d="m520.8,437.25s-19.8,48.35-31.4,56.3c-2.72,1.86,47.89-32.36,47.89-32.36l-1.44-27.71-1.6-.88"/><path class="u" d="m336.63,437.39c14.02,12.56,33.79,16.61,51.51,10.25,14.02-5.03,30.38-13.03,41.61-25.24,23.49-25.53,41.68-48.34,41.68-48.34l-1.65-24.17-180.09,16.6-.89,22.97s25.83,28.21,47.84,47.93Z"/><path class="i" d="m507.61,101.62l-94.09-38.81-143.83,40.17s-37.14,97.36-25.23,132.52c11.91,35.16,17.17,69.72,18.04,76.5,4.17,32.29,24.17,64,24.17,64,42.21,60.94,76.26,50.38,104.17,49.7,24.33-.59,68.32-47.74,79.21-59.84,1.65-1.83,2.88-4,3.6-6.36,3.74-12.23,14.89-49.55,14.89-49.55.05-3.74,16.34-74.97,16.34-74.97l8.85-13.85-6.13-119.52Zm-169.13,126.18c-.23.82-1.29,1.2-6.04,1.31-3.01.07-7.5.03-14.2-.08-5.07-.08-9.54-.12-14.5-2.74-1.36-.72-2.41-1.45-3.12-1.98,0,0,.93-1.9,6.88-4.05,1.8-.65,3.53-1.1,5.19-1.39,2.12-.37,6.62-1.11,12.29.08,2.95.62,7.18,1.57,10.87,5.05,1.67,1.57,2.91,2.75,2.62,3.8Zm110.28-1.71c-.63.36-1.49.82-2.55,1.28-.82.35-2.76,1.13-5.62,1.66-2.48.46-4.24.41-6.84.51-11.47.46-13.78-.04-15.76-1.53-.8-.6-1.6-1.23-1.66-2.15-.16-2.69,6.26-5.43,10.68-6.39,0,0,5.33-1.31,12.29-.08.43.08,2.58.36,5.19,1.39,2.47.97,4.12,1.67,4.53,3.15.24.85-.03,1.66-.26,2.17Z"/><path class="x" d="m269.71,199.59c-.04-.17-.02-.36.05-.52.88-1.92,7.17-14.42,21-14.73,14.98-.34,2.38,0,23.83,2.72,16.45,2.09,21.69,2.78,25.38,4.67.92.47,2.04,1.11,3.21,2.14,3.13,2.72,4.25,5.98,5.42,9.38,1.3,3.8.96,4.88.77,5.34-.68,1.65-2.43,2.93-4.15,2.98-1.43.04-2.32-.78-3.74-1.7-.59-.39-2.84-1.31-7.34-3.15-4.91-2.01-9.11-2.95-13.79-4.25-3.9-1.09-9.45-2.8-16.15-5.45-6.1-2.12-11.08-2.27-14.12-2.12-1.82.09-3.76.21-6.13,1.02-4.82,1.66-7.78,4.96-9.19,6.81,0,0-3.94,1.64-5.05-3.13Z"/><path class="x" d="m408.54,191.83c-1.9,1.74-6.45,6.34-6.47,11.91,0,2.04.59,2.85.95,3.19,2.29,2.23,7.91-.47,7.91-.47,2.8-1.28,6.89-3.1,11.91-5.11,10.92-4.37,16.38-6.56,22.81-7.49,4.8-.7,12.42-1.06,22.13,1.7,0,0,18.72,6.13,11.91-4.43-6.81-10.55-32-11.23-32-11.23-4.03.41-8.43,1.09-13.11,2.17-10.58,2.44-19.32,6.18-26.04,9.74Z"/><path d="m346.14,230.28c-7.56-6.34-17.33-11.13-27.31-10.61-4.89.38-9.78,1.69-14.43,3.19-4.86,1.4-9.05,4.6-14.12,5.59,0,0-.09-.29-.09-.29,2.26-1.19,4.15-2.8,6.28-4.28,5.29-3.87,11.82-5.99,18.35-6.4,6.53-.83,13.32.66,19.08,3.54,4.6,2.33,8.85,5.35,12.44,9.04,0,0-.21.21-.21.21h0Z"/><circle cx="319.45" cy="225.61" r="2.89"/><circle class="d" cx="319.45" cy="225.61" r=".79"/><path d="m432.54,223.23c-1.59,0-2.89,1.29-2.89,2.89s1.29,2.89,2.89,2.89,2.89-1.29,2.89-2.89-1.29-2.89-2.89-2.89Z"/><path class="d" d="m432.54,225.33c-.44,0-.79.35-.79.79s.35.79.79.79.79-.35.79-.79-.35-.79-.79-.79Z"/><path d="m406.26,228.91c12.5-11.95,28.38-14.4,44.37-8.28,4.96,1.98,9.61,4.62,13.53,8.29,0,0-.21.21-.21.21-4.72-2.18-9.47-4.16-14.32-5.67-4.78-1.39-9.8-3.2-14.77-3.67-7.57-.79-15.36,1.24-21.97,5.02-2.26,1.24-4.4,2.72-6.44,4.33l-.2-.23h0Z"/><path class="j" d="m359.08,294.17s2.56,9.57,11.58,10.21c1.05.07,2.38.12,3.28.04,6.83-.64,9.19-1.9,12.13-10.25,0,0-5.38,4.27-10.44,5.71-1.05.3-2.93-.57-3.9-.58-1.41-.01-1.86.9-3.06.64-3.62-.79-6.47-2.7-9.59-5.76Z"/><path class="x" d="m534.16,114.55s-6.81-38.13-24.51-60.26c-17.7-22.13-11.91-11.91-34.38-29.62C427.64-12.84,345.56,3.58,345.56,3.58l-3.06.68c-3.06.68-55.15,15.32-78.98,45.28-23.83,29.96-33.36,71.15-36.77,98.72s2.04,61.62,2.04,61.62c7.83,14.64,11.23,20.3,11.23,20.3-1.7,9.06.68,17.49,1.7,22.59,1.02,5.11,11.57,9.19,11.57,9.19l-3.74-17.36s5.11-43.91,14.64-60.36c9.53-16.45-2.04-33.59-2.04-33.59,0,0-2.38-4.77,45.1-9.87,47.49-5.11,57.7-12.6,57.7-12.6,0,0,80-71.49,108.6-20.43,22.88,40.85,19.61,51.42,17.39,54.01-.78.91-1.42,1.95-1.68,3.13-3.82,16.88,6.43,42.94,6.43,42.94,0,0,5.11,30.99,5.11,39.84s-4.08,17.7-4.08,17.7c0,0,16.34-13.96,16.68-20.77.34-6.81,4.09-9.61,4.09-9.61,0,0,13.62-.61,12.6-11.27-1.02-10.66-1.36-23.04-1.36-23.04l5.45-34.04v-52.09Z"/><path class="j" d="m350.16,294.6s3.11,5.78-2.76,4.76-13.53-9.7-13.53-9.7c0,0-9.7-12.38-4.98-11.74s8.63,2.03,10.7,8.42,1.83,6.76,6.66,7.28c3.7.4,3.91.98,3.91.98Z"/><path class="j" d="m411,275.48c-.52.21-.8.77-.68,1.32.58,2.64,1.98,11.12-3.19,14.14-6.15,3.6-9.19,2.68-9.19,2.68,0,0-6.38,1.02-2.55,2.3s5.11,4.09,10.47,0,10.94-10.02,10.21-13.66-1.66-6.26-1.66-6.26c0,0-.5-1.36-2.68-.77-.29.08-.53.16-.73.24Z"/><path class="z" d="m384,298.41c-1.91-1.09,3.56.7,9.53-.23,3.74-.58,11.27-6.3,11.27-6.3l-20.8-6.58c-1.11,1.19-4.34,4.7-4.09,7.58.27,3.1,4.09,5.54,4.09,5.54Z"/><path class="z" d="m349.65,297.18s9.13.53,11.91,0,4.77-6.97,4.77-6.97c0,0-12.26-6.81-16.68-2.38-1.11,1.11-5.58,2.96-5.79,4.05-.62,3.25,5.79,5.31,5.79,5.31Z"/><path class="j" d="m335.36,279.37s1.63,6.77,9.03,0,21.96-22.47,21.96-22.47c0,0,5.49-3.32,11.49,0s22.78,15.32,22.78,15.32c0,0,13.86,10.43,6.96,17.66-6.89,7.23,7.4-7.58,7.4-7.58,0,0-11.62-17.5-28.34-26.88s-23.21-3.39-26.22-1.41-25.07,25.35-25.07,25.35Z"/><path class="y" d="m341.99,271.36c-1.72,1.15-4.89,3.67-6.39,8.02-.36,1.05-.51,1.91-.61,2.53-.49,3.06-.15,12.94,9.04,12.26,9.19-.68,16.43.03,16.43.03,0,0-.43,6.43,8.43,6.77,8.85.34,12.6,1.7,16-4.43,3.4-6.13,12.6-3.4,12.6-3.4,0,0,8.17,4.77,11.91-1.02,1.6-2.47,3.8-11.08.59-17.02-1.44-2.66-5.49-4.36-7.91-6.47-4.86-4.24-8.92-7.94-12.03-9.75-6.53-3.8-16.4-4.37-22.89-3.45-3.66.52-7.12,1.95-10.08,4.16-4.97,3.72-13.36,10.84-15.08,11.76Z"/><path class="j" d="m352.76,252.42l3.02-8.65,4.06-12.09s.68-13.28-10.29-15.23-9.95.96-9.95.96c0,0,7.34,9.09,11.18,10.24,4.48,1.34-.81,23.96-.81,23.96,0,0-2.91,6.87,0,3.43"/><path class="j" d="m393.05,225.09s-5.79,10.87-2.38,17.34,9.19,15.66,9.19,15.66c0,0,4.9,4.14,6.5.68.88-1.91-.09-2.53,0-2.75.18-.42.15.79-2.42-3.03-8.64-12.86-6.59-23.27-.34-27.65,1.45-1.02,2.6-2.32,3.82-5.23s3.08-3.18,2.65-4.25c-2.93-7.26-15.44,6.15-17.02,9.25Z"/><path class="j" d="m324.62,283.14l-19.95,22.26s-7.85,9.87-1.86,23.49c0,0-1.41-6.47.59-12.94,1.81-5.86,19.17-27.1,22.41-31.03.32-.39.39-.92.18-1.38l-.09-.21c-.23-.51-.91-.61-1.28-.2Z"/><path class="j" d="m421.86,278.2s-3.45-5.01-5.49-4.67c-2.04.34-4.02.22-2.86,2.33,1.16,2.1,12.39,17.42,12.39,17.42,0,0,9.53,10.58,12.6,12.61,3.06,2.03,8.17,13.94,7.49,14.96,0,0,2.04-9.16-1.36-14.96-3.4-5.8-12.88-18.06-12.88-18.06l-9.89-9.63Z"/><polygon class="w" points="314.46 328.21 327.43 327.65 327.1 345.02 314.46 328.21"/><polygon class="w" points="415.43 341.49 415.43 325.28 431.35 328 415.43 341.49"/><polygon class="m" points="327.27 336.34 415.43 334.83 415.43 342.75 370.31 361.21 327.07 343.94 327.27 336.34"/><path class="d" d="m415.43,325.28l-.26,13.62s-7.83,2.89-8,1.53v4.6s-9.87.34-9.7-2.38v2.38c-.35.69-.98,1.19-1.73,1.35-2.34.51-8,.41-8.65-.5h0c0,1.13-.91,2.04-2.04,2.04h-11.81s-1.63-1.02-1.8-2.89-.68,3.77-2.21,3.94c-1.1.12-7.11.07-10.41.03-1.61-.02-3.03-1.24-3.12-2.85-.02-.43.04-.82.25-1.12.85-1.19-.51,3.4-2.38,2.89-1.31-.36-4.86-.46-6.71-.67-.64-.07-1.13-.62-1.13-1.27l-.02-1.98s-.59,2.41-6.12,1.87c-.95-.09-1.72-.28-2.32-.48-.96-.32-1.6-1.21-1.64-2.22l-.06-1.68s-4.81,3.02-8.13,1.15v-14.99"/><path class="k" d="m314.46,328.21s17.49,29.06,22.09,32.47,11.4,9.87,26.04,9.19,33.7-7.15,33.7-7.15c0,0,10.21-3.4,21.45-17.36s13.62-17.36,13.62-17.36l-27.28,16.82c-6.57,4.22-14,6.94-21.74,7.94l-17.03,2.59c-12.32-.55-24.22-4.68-34.23-11.89l-16.62-15.25Z"/><path class="ab" d="m214.13,482.51s-6.24,5.15,0,13.32c0,0,46.07,24.26,62.66,41.11,16.6,16.85,38.81,82.21,38.81,82.21,0,0-1.28,11.49,20.68,17.11,0,0,.77-1.49,9.96,55.17h34.72s33.45-109.3,55.4-127.68,16.09-36.53,110.55-89.24l-5.56-18.25s-104.91,64.09-138.53,137.62c-33.62,73.53-35.66,91.32-35.66,91.32h-9.19s-1.53-63.74-21.19-91.32c-19.66-27.57-36.65-72.93-101.87-101.7l-20.79-9.66Z"/><path class="k" d="m314.46,328.21s16.47-3.62,31.79-3.62,12.2,1.02,26.35,0,33.56-3.4,46.16,0l12.6,3.4s-25.19-3.6-35.06-2.14-23.69,6.22-23.69,6.22c0,0-12.4-4.68-31.46-3.19s-26.68-.68-26.68-.68Z"/><path class="p" d="m215.45,481.86c1.16-.59,2.95-1.51,4.75-2.53,3.11-1.76,5.72-4.28,7.61-7.32,2.1-3.37,7.01-10.55,18.47-25.81,20.83-27.73,20.57-15.16,20.57-15.16l-29.52,48.8c-.57.94-1.5,1.61-2.57,1.83-3.14.66-10.33,1.82-19.15.99-.42-.04-.53-.62-.15-.81Z"/><path class="t" d="m212.12,485.96l2.02,1.25,32.71,20.2s27.57,15.66,38.47,26.21c10.89,10.55,27.23,32.68,27.23,32.68l19.4,27.57-46.64-56.51s-12.26-12.26-38.47-27.57c-26.21-15.32-34.72-23.83-34.72-23.83Z"/><polygon class="aa" points="355.01 683.83 342.5 673.87 342.5 671.66 342.5 669.11 357.05 669.02 368.71 679.32 368.71 682.72 356.54 683.06 355.01 683.83"/><polygon class="aa" points="359.18 684.77 355.61 691.43 365.99 691.43 365.99 684.77 359.18 684.77"/><polygon class="e" points="356.97 671.41 368.71 681.43 368.71 679.32 357.05 669.02 342.5 669.11 342.5 671.66 356.97 671.41"/><path class="t" d="m423.35,571.15s28.85-56.84,111.57-99.91c0,0-67.49,38.38-111.57,99.91Z"/><path class="n" d="m394.24,633.96s15.37-1.46,32.22,4.42c0,0,8.12,6.05,58.16,5.29s141.45-8.17,141.45-8.17c0,0,5.11,28.66,60,39.74l-6.64,14.91h-304.26l19.06-56.18Z"/><path class="j" d="m365.26,300.13s2.77,17.57,6.98,17.57,8.68-17.57,8.68-17.57h-15.66Z"/></g></svg>